PathFileType	4	(X/Y/Z)	C:\Data\4407\4407cd03.trc
DataRate	CameraRate	NumFrames	NumMarkers	Units	OrigDataRate	OrigDataStartFrame	OrigNumFrames
200.00	200.00	      5	29	mm	200.00	751	      2000
Frame#	Time	Offset			RShoulder			RUpperArm			RElbow			RForearm			RWrist			LShoulder			LUpperArm			LElbow			LForearm			LWrist			LPSIS			RPSIS			RASIS			RThigh			RKnee			RShank			RAnkle			RHeel			RLat5			RToe			LASIS			LThigh			LKnee			LShank			LAnkle			LHeel			LLat5			LToe			
        X1	Y1	Z1	X2	Y2	Z2	X3	Y3	Z3	X4	Y4	Z4	X5	Y5	Z5	X6	Y6	Z6	X7	Y7	Z7	X8	Y8	Z8	X9	Y9	Z9	X10	Y10	Z10	X11	Y11	Z11	X12	Y12	Z12	X13	Y13	Z13	X14	Y14	Z14	X15	Y15	Z15	X16	Y16	Z16	X17	Y17	Z17	X18	Y18	Z18	X19	Y19	Z19	X20	Y20	Z20	X21	Y21	Z21	X22	Y22	Z22	X23	Y23	Z23	X24	Y24	Z24	X25	Y25	Z25	X26	Y26	Z26	X27	Y27	Z27	X28	Y28	Z28	X29	Y29	Z29	

751	3.750	366.02426	-144.24652	1351.42310	473.61481	-2.05901	1462.92212	516.96454	-143.46964	1323.04834	613.14124	-151.48518	1186.67627	548.56274	-89.29767	1037.84387	531.85480	46.92468	1025.44543	119.08839	-34.30691	1443.40369	97.07545	-147.41005	1235.46191	10.05890	-137.22633	1135.06812	25.53442	19.82543	1098.45264	30.51943	129.77454	1200.78687	318.07114	-171.76967	975.85229	367.26999	-162.89182	971.98175	425.26526	63.91306	955.21954	378.52698	156.77303	671.66608	456.37015	128.23103	466.45731	414.00531	87.77687	393.80075	407.59973	-257.78693	335.01447	351.74112	-300.41510	375.57733	460.11606	-275.20056	191.89778	355.61346	-266.99094	166.75816	176.81606	20.72919	959.26501	217.24434	94.71523	648.99225	182.42352	55.37399	473.25735	237.54382	63.41801	396.71872	250.24574	-146.89706	114.69829	297.82770	-217.03403	93.28310	235.18958	-7.06929	53.25289	348.57584	-11.31485	37.41069	
752	3.755	365.34045	-144.83665	1351.71985	473.67700	-3.65956	1463.31750	514.95447	-146.14850	1324.48499	612.08136	-156.68240	1189.02905	548.57385	-95.48820	1039.28772	534.19788	41.27288	1025.83716	119.14221	-32.73970	1443.04663	95.96898	-142.17975	1233.09790	8.81963	-128.49965	1133.20764	26.99658	29.62925	1100.45190	33.05297	136.66344	1205.07129	318.85208	-172.87622	976.29578	368.27368	-163.64026	972.06219	425.11075	63.36403	955.48322	377.32758	159.10301	674.90094	455.36972	136.98018	469.46613	412.90189	97.57616	396.66943	409.33670	-247.14998	330.61600	354.13257	-291.90393	369.94742	462.09018	-259.38400	186.94704	357.65021	-250.17606	162.12439	176.35268	19.92722	959.26056	217.25699	90.47115	647.11224	181.79057	48.92363	471.77747	236.63255	55.57355	394.75961	249.66682	-158.31912	115.65102	297.07062	-228.49223	94.63249	235.02156	-19.00305	53.13888	348.47159	-23.58333	37.56376	
753	3.760	364.53662	-145.60085	1352.46997	473.59198	-5.17557	1464.30029	513.03076	-148.81926	1326.90234	611.36218	-162.11194	1191.90332	548.95612	-101.03432	1041.52112	536.16284	35.73462	1027.11426	119.17628	-31.18292	1443.37695	95.35833	-136.73418	1231.85449	8.01629	-119.98069	1132.21777	28.66332	38.85279	1102.56201	35.77408	143.46910	1210.25061	319.21478	-173.84436	977.08081	368.87531	-164.66556	972.96100	425.28229	62.41210	956.27936	376.22260	161.71779	679.02234	454.28186	145.39279	473.23694	411.81400	107.03319	399.51657	410.93323	-236.15959	325.75879	356.40628	-282.97830	363.91479	463.22708	-243.11633	181.66415	358.94345	-234.58780	157.39558	176.41109	18.48166	959.13989	216.97736	86.00896	645.46246	181.11325	41.67420	470.61664	235.42038	49.38611	393.57901	248.97105	-169.75632	116.59741	295.98071	-240.31281	96.63383	234.87325	-31.04195	53.04375	348.14648	-36.24871	37.76109	
754	3.765	363.94193	-146.25354	1353.54004	473.75610	-6.77358	1465.86560	511.35431	-151.55360	1329.94299	610.47284	-167.42384	1195.31360	548.81061	-106.71611	1044.52661	537.95697	30.37946	1029.34094	119.40063	-29.61058	1444.38220	94.47687	-131.58044	1231.61719	7.33154	-111.85170	1132.06848	30.65384	48.21370	1105.60437	39.22297	149.56740	1216.27307	319.16632	-174.73833	978.25690	368.73709	-165.58020	974.24359	425.53366	61.42689	957.78998	375.05896	163.08083	682.95557	453.56229	153.29390	477.44241	410.85760	116.84430	403.07825	412.36932	-225.13747	320.55917	358.36691	-274.27640	357.29971	465.33530	-221.07541	178.67912	360.05637	-218.53049	152.99059	176.67615	17.59326	959.35175	216.16132	81.29741	643.67816	180.70027	33.76366	469.62286	235.29248	38.96074	391.74252	248.44331	-181.59633	117.74641	295.14297	-251.99979	98.48017	234.87854	-43.24907	53.04669	347.96600	-47.63012	38.55346	
755	3.770	363.36084	-146.72827	1354.94104	473.78271	-8.58390	1467.81946	510.08133	-154.17223	1333.37512	609.78333	-172.58208	1199.18506	548.66486	-111.86949	1048.20618	539.43164	25.27995	1032.23743	119.68788	-28.16245	1445.78638	93.75209	-126.44077	1232.40442	6.81085	-104.04523	1132.70251	32.99952	56.97492	1109.73962	42.79198	155.16370	1222.88220	319.02081	-175.27307	979.61023	368.47803	-166.37100	976.29413	425.72424	61.43957	960.18341	374.27048	164.67130	687.49646	452.81302	160.88626	482.25235	409.66559	125.77579	406.94550	413.45200	-213.99753	315.40311	360.28125	-265.07895	350.17548	465.61130	-209.35719	171.53447	360.95447	-201.93085	147.84048	177.01616	16.95449	959.71844	214.76146	76.31922	641.83704	180.44571	25.00122	468.90427	233.25307	34.18630	390.21683	248.00139	-193.11227	118.99765	294.99139	-263.75095	100.52924	234.79190	-55.45356	53.03435	347.82999	-59.64377	38.72457	
